<svg xmlns="http://www.w3.org/2000/svg" width="87.5mm" height="392.0mm" viewBox="0 0 87.5 392.0" font-family="Noto Sans CJK JP, IPAGothic, Hiragino Sans, Yu Gothic, Meiryo, sans-serif">
<rect x="0" y="0" width="87.5" height="392.0" fill="white"/>
<text x="25.0" y="7" font-size="4">X Gantry Tube — -Z面(下)側から見た図  外形 75 x 640 mm</text>
<text x="25.0" y="12" font-size="3" fill="#555">縮尺 1:2 (型紙ではない。寸法は穴位置表 CSV を使用)</text>
<rect x="25.00" y="39.00" width="37.50" height="320.00" fill="none" stroke="black" stroke-width="0.3"/>
<text x="25.0" y="364.0" font-size="3">原点 (Y→, X↑)</text>
<circle cx="43.75" cy="309.00" r="1.05" fill="none" stroke="red" stroke-width="0.25"/>
<path d="M41.75,309.00H45.75M43.75,307.00V311.00" stroke="red" stroke-width="0.15"/>
<text x="45.60" y="308.20" font-size="1.8">Φ4.2 (37.5, 100)</text>
<circle cx="43.75" cy="279.00" r="1.05" fill="none" stroke="red" stroke-width="0.25"/>
<path d="M41.75,279.00H45.75M43.75,277.00V281.00" stroke="red" stroke-width="0.15"/>
<text x="45.60" y="278.20" font-size="1.8">Φ4.2 (37.5, 160)</text>
<circle cx="43.75" cy="249.00" r="1.05" fill="none" stroke="red" stroke-width="0.25"/>
<path d="M41.75,249.00H45.75M43.75,247.00V251.00" stroke="red" stroke-width="0.15"/>
<text x="45.60" y="248.20" font-size="1.8">Φ4.2 (37.5, 220)</text>
<circle cx="43.75" cy="219.00" r="1.05" fill="none" stroke="red" stroke-width="0.25"/>
<path d="M41.75,219.00H45.75M43.75,217.00V221.00" stroke="red" stroke-width="0.15"/>
<text x="45.60" y="218.20" font-size="1.8">Φ4.2 (37.5, 280)</text>
<circle cx="43.75" cy="189.00" r="1.05" fill="none" stroke="red" stroke-width="0.25"/>
<path d="M41.75,189.00H45.75M43.75,187.00V191.00" stroke="red" stroke-width="0.15"/>
<text x="45.60" y="188.20" font-size="1.8">Φ4.2 (37.5, 340)</text>
<circle cx="43.75" cy="159.00" r="1.05" fill="none" stroke="red" stroke-width="0.25"/>
<path d="M41.75,159.00H45.75M43.75,157.00V161.00" stroke="red" stroke-width="0.15"/>
<text x="45.60" y="158.20" font-size="1.8">Φ4.2 (37.5, 400)</text>
<circle cx="43.75" cy="129.00" r="1.05" fill="none" stroke="red" stroke-width="0.25"/>
<path d="M41.75,129.00H45.75M43.75,127.00V131.00" stroke="red" stroke-width="0.15"/>
<text x="45.60" y="128.20" font-size="1.8">Φ4.2 (37.5, 460)</text>
<circle cx="43.75" cy="99.00" r="1.05" fill="none" stroke="red" stroke-width="0.25"/>
<path d="M41.75,99.00H45.75M43.75,97.00V101.00" stroke="red" stroke-width="0.15"/>
<text x="45.60" y="98.20" font-size="1.8">Φ4.2 (37.5, 520)</text>
<path d="M25.0,387.0h50.00" stroke="black" stroke-width="0.5"/>
<text x="25.0" y="385.5" font-size="2.5">100 mm</text>
</svg>