<svg xmlns="http://www.w3.org/2000/svg" width="120.0mm" height="117.0mm" viewBox="0 0 120.0 117.0" font-family="Noto Sans CJK JP, IPAGothic, Hiragino Sans, Yu Gothic, Meiryo, sans-serif">
<rect x="0" y="0" width="120.0" height="117.0" fill="white"/>
<text x="25.0" y="7" font-size="4">X HM12-57 Spacer — +Y面(奥)から貫通側から見た図  外形 70 x 45 mm</text>
<text x="25.0" y="12" font-size="3" fill="#555">縮尺 1:1 (100%で印刷して型紙に使用 / 基準辺を材料の端に合わせる)</text>
<rect x="25.00" y="39.00" width="70.00" height="45.00" fill="none" stroke="black" stroke-width="0.3"/>
<text x="25.0" y="89.0" font-size="3">原点 (Z→, X↑)</text>
<circle cx="60.00" cy="73.50" r="2.75" fill="none" stroke="red" stroke-width="0.25"/>
<circle cx="60.00" cy="73.50" r="5.25" fill="none" stroke="red" stroke-width="0.15" stroke-dasharray="0.8,0.6"/>
<path d="M58.00,73.50H62.00M60.00,71.50V75.50" stroke="red" stroke-width="0.15"/>
<text x="63.55" y="72.70" font-size="2.2">Φ5.5 (35, 10.5)</text>
<circle cx="37.00" cy="61.50" r="2.10" fill="none" stroke="red" stroke-width="0.25"/>
<path d="M35.00,61.50H39.00M37.00,59.50V63.50" stroke="red" stroke-width="0.15"/>
<text x="39.90" y="60.70" font-size="2.2">Φ4.2 (12, 22.5)</text>
<circle cx="83.00" cy="61.50" r="2.10" fill="none" stroke="red" stroke-width="0.25"/>
<path d="M81.00,61.50H85.00M83.00,59.50V63.50" stroke="red" stroke-width="0.15"/>
<text x="85.90" y="60.70" font-size="2.2">Φ4.2 (58, 22.5)</text>
<circle cx="60.00" cy="49.50" r="2.75" fill="none" stroke="red" stroke-width="0.25"/>
<circle cx="60.00" cy="49.50" r="5.25" fill="none" stroke="red" stroke-width="0.15" stroke-dasharray="0.8,0.6"/>
<path d="M58.00,49.50H62.00M60.00,47.50V51.50" stroke="red" stroke-width="0.15"/>
<text x="63.55" y="48.70" font-size="2.2">Φ5.5 (35, 34.5)</text>
<path d="M25.0,112.0h100.00" stroke="black" stroke-width="0.5"/>
<text x="25.0" y="110.5" font-size="2.5">100 mm</text>
</svg>