<svg xmlns="http://www.w3.org/2000/svg" width="197.5mm" height="142.0mm" viewBox="0 0 197.5 142.0" font-family="Noto Sans CJK JP, IPAGothic, Hiragino Sans, Yu Gothic, Meiryo, sans-serif">
<rect x="0" y="0" width="197.5" height="142.0" fill="white"/>
<text x="25.0" y="7" font-size="4">X Nut Bracket — -X面(左)から貫通側から見た図  外形 147.5 x 70 mm</text>
<text x="25.0" y="12" font-size="3" fill="#555">縮尺 1:1 (100%で印刷して型紙に使用 / 基準辺を材料の端に合わせる)</text>
<rect x="25.00" y="39.00" width="147.50" height="70.00" fill="none" stroke="black" stroke-width="0.3"/>
<text x="25.0" y="114.0" font-size="3">原点 (Z→, Y↑)</text>
<circle cx="41.56" cy="82.44" r="2.75" fill="none" stroke="red" stroke-width="0.25"/>
<path d="M39.56,82.44H43.56M41.56,80.44V84.44" stroke="red" stroke-width="0.15"/>
<text x="45.11" y="81.64" font-size="2.2">Φ5.5 (16.6, 26.6)</text>
<circle cx="68.44" cy="82.44" r="2.75" fill="none" stroke="red" stroke-width="0.25"/>
<path d="M66.44,82.44H70.44M68.44,80.44V84.44" stroke="red" stroke-width="0.15"/>
<text x="71.99" y="81.64" font-size="2.2">Φ5.5 (43.4, 26.6)</text>
<circle cx="55.00" cy="69.00" r="14.50" fill="none" stroke="red" stroke-width="0.25"/>
<path d="M53.00,69.00H57.00M55.00,67.00V71.00" stroke="red" stroke-width="0.15"/>
<text x="70.30" y="68.20" font-size="2.2">Φ29 (30, 40)</text>
<circle cx="41.56" cy="55.56" r="2.75" fill="none" stroke="red" stroke-width="0.25"/>
<path d="M39.56,55.56H43.56M41.56,53.56V57.56" stroke="red" stroke-width="0.15"/>
<text x="45.11" y="54.76" font-size="2.2">Φ5.5 (16.6, 53.4)</text>
<circle cx="68.44" cy="55.56" r="2.75" fill="none" stroke="red" stroke-width="0.25"/>
<path d="M66.44,55.56H70.44M68.44,53.56V57.56" stroke="red" stroke-width="0.15"/>
<text x="71.99" y="54.76" font-size="2.2">Φ5.5 (43.4, 53.4)</text>
<path d="M25.0,137.0h100.00" stroke="black" stroke-width="0.5"/>
<text x="25.0" y="135.5" font-size="2.5">100 mm</text>
</svg>