<svg xmlns="http://www.w3.org/2000/svg" width="115.0mm" height="252.0mm" viewBox="0 0 115.0 252.0" font-family="Noto Sans CJK JP, IPAGothic, Hiragino Sans, Yu Gothic, Meiryo, sans-serif">
<rect x="0" y="0" width="115.0" height="252.0" fill="white"/>
<text x="25.0" y="7" font-size="4">Y Nut Bracket R — -Y面(手前)から貫通側から見た図  外形 65 x 180 mm</text>
<text x="25.0" y="12" font-size="3" fill="#555">縮尺 1:1 (100%で印刷して型紙に使用 / 基準辺を材料の端に合わせる)</text>
<rect x="25.00" y="39.00" width="65.00" height="180.00" fill="none" stroke="black" stroke-width="0.3"/>
<text x="25.0" y="224.0" font-size="3">原点 (X→, Z↑)</text>
<circle cx="47.56" cy="202.44" r="2.75" fill="none" stroke="red" stroke-width="0.25"/>
<path d="M45.56,202.44H49.56M47.56,200.44V204.44" stroke="red" stroke-width="0.15"/>
<text x="51.11" y="201.64" font-size="2.2">Φ5.5 (22.6, 16.6)</text>
<circle cx="74.44" cy="202.44" r="2.75" fill="none" stroke="red" stroke-width="0.25"/>
<path d="M72.44,202.44H76.44M74.44,200.44V204.44" stroke="red" stroke-width="0.15"/>
<text x="77.99" y="201.64" font-size="2.2">Φ5.5 (49.4, 16.6)</text>
<circle cx="61.00" cy="189.00" r="14.50" fill="none" stroke="red" stroke-width="0.25"/>
<path d="M59.00,189.00H63.00M61.00,187.00V191.00" stroke="red" stroke-width="0.15"/>
<text x="76.30" y="188.20" font-size="2.2">Φ29 (36, 30)</text>
<circle cx="47.56" cy="175.56" r="2.75" fill="none" stroke="red" stroke-width="0.25"/>
<path d="M45.56,175.56H49.56M47.56,173.56V177.56" stroke="red" stroke-width="0.15"/>
<text x="51.11" y="174.76" font-size="2.2">Φ5.5 (22.6, 43.4)</text>
<circle cx="74.44" cy="175.56" r="2.75" fill="none" stroke="red" stroke-width="0.25"/>
<path d="M72.44,175.56H76.44M74.44,173.56V177.56" stroke="red" stroke-width="0.15"/>
<text x="77.99" y="174.76" font-size="2.2">Φ5.5 (49.4, 43.4)</text>
<path d="M25.0,247.0h100.00" stroke="black" stroke-width="0.5"/>
<text x="25.0" y="245.5" font-size="2.5">100 mm</text>
</svg>