<svg xmlns="http://www.w3.org/2000/svg" width="125.0mm" height="222.0mm" viewBox="0 0 125.0 222.0" font-family="Noto Sans CJK JP, IPAGothic, Hiragino Sans, Yu Gothic, Meiryo, sans-serif">
<rect x="0" y="0" width="125.0" height="222.0" fill="white"/>
<text x="25.0" y="7" font-size="4">Y Roller R — +Z面(上)側から見た図  外形 75 x 150 mm</text>
<text x="25.0" y="12" font-size="3" fill="#555">縮尺 1:1 (100%で印刷して型紙に使用 / 基準辺を材料の端に合わせる)</text>
<rect x="25.00" y="39.00" width="75.00" height="150.00" fill="none" stroke="black" stroke-width="0.3"/>
<text x="25.0" y="194.0" font-size="3">原点 (X→, Y↑)</text>
<circle cx="36.00" cy="174.00" r="6.00" fill="none" stroke="red" stroke-width="0.25"/>
<path d="M34.00,174.00H38.00M36.00,172.00V176.00" stroke="red" stroke-width="0.15"/>
<text x="42.80" y="173.20" font-size="2.2">Φ12 (11, 15)</text>
<circle cx="89.00" cy="174.00" r="6.00" fill="none" stroke="red" stroke-width="0.25"/>
<path d="M87.00,174.00H91.00M89.00,172.00V176.00" stroke="red" stroke-width="0.15"/>
<text x="95.80" y="173.20" font-size="2.2">Φ12 (64, 15)</text>
<circle cx="42.50" cy="151.50" r="4.50" fill="none" stroke="red" stroke-width="0.25"/>
<path d="M40.50,151.50H44.50M42.50,149.50V153.50" stroke="red" stroke-width="0.15"/>
<text x="47.80" y="150.70" font-size="2.2">Φ9 (17.5, 37.5)</text>
<circle cx="82.50" cy="151.50" r="4.50" fill="none" stroke="red" stroke-width="0.25"/>
<path d="M80.50,151.50H84.50M82.50,149.50V153.50" stroke="red" stroke-width="0.15"/>
<text x="87.80" y="150.70" font-size="2.2">Φ9 (57.5, 37.5)</text>
<circle cx="36.00" cy="134.00" r="6.00" fill="none" stroke="red" stroke-width="0.25"/>
<path d="M34.00,134.00H38.00M36.00,132.00V136.00" stroke="red" stroke-width="0.15"/>
<text x="42.80" y="133.20" font-size="2.2">Φ12 (11, 55)</text>
<circle cx="89.00" cy="134.00" r="6.00" fill="none" stroke="red" stroke-width="0.25"/>
<path d="M87.00,134.00H91.00M89.00,132.00V136.00" stroke="red" stroke-width="0.15"/>
<text x="95.80" y="133.20" font-size="2.2">Φ12 (64, 55)</text>
<circle cx="62.50" cy="109.00" r="4.50" fill="none" stroke="red" stroke-width="0.25"/>
<path d="M60.50,109.00H64.50M62.50,107.00V111.00" stroke="red" stroke-width="0.15"/>
<text x="67.80" y="108.20" font-size="2.2">Φ9 (37.5, 80)</text>
<circle cx="36.00" cy="94.00" r="6.00" fill="none" stroke="red" stroke-width="0.25"/>
<path d="M34.00,94.00H38.00M36.00,92.00V96.00" stroke="red" stroke-width="0.15"/>
<text x="42.80" y="93.20" font-size="2.2">Φ12 (11, 95)</text>
<circle cx="89.00" cy="94.00" r="6.00" fill="none" stroke="red" stroke-width="0.25"/>
<path d="M87.00,94.00H91.00M89.00,92.00V96.00" stroke="red" stroke-width="0.15"/>
<text x="95.80" y="93.20" font-size="2.2">Φ12 (64, 95)</text>
<circle cx="62.50" cy="69.00" r="4.50" fill="none" stroke="red" stroke-width="0.25"/>
<path d="M60.50,69.00H64.50M62.50,67.00V71.00" stroke="red" stroke-width="0.15"/>
<text x="67.80" y="68.20" font-size="2.2">Φ9 (37.5, 120)</text>
<circle cx="36.00" cy="54.00" r="6.00" fill="none" stroke="red" stroke-width="0.25"/>
<path d="M34.00,54.00H38.00M36.00,52.00V56.00" stroke="red" stroke-width="0.15"/>
<text x="42.80" y="53.20" font-size="2.2">Φ12 (11, 135)</text>
<circle cx="89.00" cy="54.00" r="6.00" fill="none" stroke="red" stroke-width="0.25"/>
<path d="M87.00,54.00H91.00M89.00,52.00V56.00" stroke="red" stroke-width="0.15"/>
<text x="95.80" y="53.20" font-size="2.2">Φ12 (64, 135)</text>
<path d="M25.0,217.0h100.00" stroke="black" stroke-width="0.5"/>
<text x="25.0" y="215.5" font-size="2.5">100 mm</text>
</svg>