<svg xmlns="http://www.w3.org/2000/svg" width="130.0mm" height="147.0mm" viewBox="0 0 130.0 147.0" font-family="Noto Sans CJK JP, IPAGothic, Hiragino Sans, Yu Gothic, Meiryo, sans-serif">
<rect x="0" y="0" width="130.0" height="147.0" fill="white"/>
<text x="25.0" y="7" font-size="4">Z Top Angle — +Z面(上)から貫通側から見た図  外形 80 x 75 mm</text>
<text x="25.0" y="12" font-size="3" fill="#555">縮尺 1:1 (100%で印刷して型紙に使用 / 基準辺を材料の端に合わせる)</text>
<rect x="25.00" y="39.00" width="80.00" height="75.00" fill="none" stroke="black" stroke-width="0.3"/>
<text x="25.0" y="119.0" font-size="3">原点 (X→, Y↑)</text>
<circle cx="41.43" cy="98.57" r="2.75" fill="none" stroke="red" stroke-width="0.25"/>
<path d="M39.43,98.57H43.43M41.43,96.57V100.57" stroke="red" stroke-width="0.15"/>
<text x="44.98" y="97.77" font-size="2.2">Φ5.5 (16.4, 15.4)</text>
<circle cx="88.57" cy="98.57" r="2.75" fill="none" stroke="red" stroke-width="0.25"/>
<path d="M86.57,98.57H90.57M88.57,96.57V100.57" stroke="red" stroke-width="0.15"/>
<text x="92.12" y="97.77" font-size="2.2">Φ5.5 (63.6, 15.4)</text>
<circle cx="65.00" cy="75.00" r="11.00" fill="none" stroke="red" stroke-width="0.25"/>
<path d="M63.00,75.00H67.00M65.00,73.00V77.00" stroke="red" stroke-width="0.15"/>
<text x="76.80" y="74.20" font-size="2.2">Φ22 (40, 39)</text>
<circle cx="41.43" cy="51.43" r="2.75" fill="none" stroke="red" stroke-width="0.25"/>
<path d="M39.43,51.43H43.43M41.43,49.43V53.43" stroke="red" stroke-width="0.15"/>
<text x="44.98" y="50.63" font-size="2.2">Φ5.5 (16.4, 62.6)</text>
<circle cx="88.57" cy="51.43" r="2.75" fill="none" stroke="red" stroke-width="0.25"/>
<path d="M86.57,51.43H90.57M88.57,49.43V53.43" stroke="red" stroke-width="0.15"/>
<text x="92.12" y="50.63" font-size="2.2">Φ5.5 (63.6, 62.6)</text>
<path d="M25.0,142.0h100.00" stroke="black" stroke-width="0.5"/>
<text x="25.0" y="140.5" font-size="2.5">100 mm</text>
</svg>